<svg width="18" height="18" viewBox="0 0 18 18" fill="none" xmlns="http://www.w3.org/2000/svg">
<path d="M9.00059 16.2003L8.64703 16.5538C8.84229 16.7491 9.15888 16.7491 9.35414 16.5538L9.00059 16.2003ZM1.84323 9.04293L1.48967 9.39649H1.48967L1.84323 9.04293ZM7.84323 3.04293L7.48967 3.39649V3.39649L7.84323 3.04293ZM9.00059 4.20029L8.64703 4.55385C8.84229 4.74911 9.15888 4.74911 9.35414 4.55385L9.00059 4.20029ZM10.1579 3.04293L9.80439 2.68938V2.68938L10.1579 3.04293ZM9.35414 15.8467L2.19678 8.68938L1.48967 9.39649L8.64703 16.5538L9.35414 15.8467ZM15.8044 8.68938L8.64703 15.8467L9.35414 16.5538L16.5115 9.39649L15.8044 8.68938ZM7.48967 3.39649L8.64703 4.55385L9.35414 3.84674L8.19678 2.68938L7.48967 3.39649ZM9.35414 4.55385L10.5115 3.39649L9.80439 2.68938L8.64703 3.84674L9.35414 4.55385ZM13.1579 1.30029C11.9001 1.30029 10.6938 1.79996 9.80439 2.68938L10.5115 3.39649C11.2134 2.69461 12.1653 2.30029 13.1579 2.30029V1.30029ZM16.9006 6.04293C16.9006 7.03554 16.5063 7.9875 15.8044 8.68938L16.5115 9.39649C17.4009 8.50707 17.9006 7.30076 17.9006 6.04293H16.9006ZM17.9006 6.04293C17.9006 3.42365 15.7772 1.30029 13.1579 1.30029V2.30029C15.2249 2.30029 16.9006 3.97593 16.9006 6.04293H17.9006ZM4.84323 2.30029C5.83584 2.30029 6.78779 2.69461 7.48967 3.39649L8.19678 2.68938C7.30736 1.79996 6.10105 1.30029 4.84323 1.30029V2.30029ZM1.10059 6.04293C1.10059 3.97593 2.77622 2.30029 4.84323 2.30029V1.30029C2.22394 1.30029 0.100586 3.42365 0.100586 6.04293H1.10059ZM2.19678 8.68938C1.4949 7.9875 1.10059 7.03554 1.10059 6.04293H0.100586C0.100586 7.30076 0.600254 8.50707 1.48967 9.39649L2.19678 8.68938Z" fill="#BF1E77"/>
</svg>
